<svg width="24" height="24" viewBox="0 0 24 24" fill="none" xmlns="http://www.w3.org/2000/svg">
<path d="M6.00002 9.6V13.8M18 9.6V13.8M4.20002 18H19.8C20.7941 18 21.6 17.1941 21.6 16.2V7.8C21.6 6.80589 20.7941 6 19.8 6H4.20002C3.20591 6 2.40002 6.80589 2.40002 7.8V16.2C2.40002 17.1941 3.20591 18 4.20002 18ZM14.4 12C14.4 13.3255 13.3255 14.4 12 14.4C10.6745 14.4 9.60002 13.3255 9.60002 12C9.60002 10.6745 10.6745 9.6 12 9.6C13.3255 9.6 14.4 10.6745 14.4 12Z" stroke="#7981A4" stroke-width="2" stroke-linecap="round" stroke-linejoin="round"/>
</svg>
