<svg width="24" height="19" viewBox="0 0 24 19" fill="none" xmlns="http://www.w3.org/2000/svg">
<path d="M1.56407 14.1907C1.60413 14.2462 1.66066 14.2876 1.72561 14.3091L3.46852 14.8896C3.85171 15.0173 4.1999 15.2324 4.4855 15.518C4.7711 15.8036 4.98626 16.1518 5.11393 16.535L5.6944 18.2779C5.71591 18.3429 5.75734 18.3994 5.81281 18.4395C5.86827 18.4795 5.93496 18.5011 6.00338 18.5011C6.0718 18.5011 6.13849 18.4795 6.19395 18.4395C6.24942 18.3994 6.29085 18.3429 6.31236 18.2779L6.89283 16.535C7.0205 16.1518 7.23566 15.8036 7.52126 15.518C7.80686 15.2324 8.15505 15.0173 8.53824 14.8896L10.2811 14.3091C10.3461 14.2876 10.4026 14.2462 10.4427 14.1907C10.4828 14.1353 10.5043 14.0686 10.5043 14.0001C10.5043 13.9317 10.4828 13.865 10.4427 13.8096C10.4026 13.7541 10.3461 13.7127 10.2811 13.6912L8.53824 13.1107C8.15505 12.983 7.80686 12.7679 7.52126 12.4823C7.23566 12.1967 7.0205 11.8485 6.89283 11.4653L6.31236 9.72238C6.29085 9.65742 6.24942 9.6009 6.19395 9.56084C6.13849 9.52077 6.0718 9.49921 6.00338 9.49921C5.93496 9.49921 5.86827 9.52077 5.81281 9.56084C5.75734 9.6009 5.7159 9.65742 5.6944 9.72238L5.11393 11.4653C4.85444 12.2422 4.24547 12.8512 3.46852 13.1107L1.72561 13.6912C1.66066 13.7127 1.60413 13.7541 1.56407 13.8096C1.524 13.865 1.50244 13.9317 1.50244 14.0001C1.50244 14.0686 1.524 14.1353 1.56407 14.1907Z" fill="#DDDDDD" fill-opacity="0.8"/>
<path d="M9.36684 7.48465C8.87186 7.64964 8.87186 8.34861 9.36684 8.5136L12.2722 9.48105C12.9107 9.69384 13.4909 10.0524 13.9668 10.5283C14.4427 11.0042 14.8012 11.5844 15.014 12.2229L15.9815 15.1282C16.0171 15.2366 16.0859 15.331 16.1783 15.3979C16.2707 15.4648 16.3819 15.5009 16.496 15.5009C16.61 15.5009 16.7212 15.4648 16.8136 15.3979C16.906 15.331 16.9749 15.2366 17.0104 15.1282L17.9779 12.2229C18.1907 11.5844 18.5492 11.0042 19.0251 10.5283C19.501 10.0524 20.0812 9.69384 20.7197 9.48105L23.6251 8.5136C23.7335 8.47803 23.8278 8.40913 23.8948 8.31675C23.9617 8.22436 23.9977 8.1132 23.9977 7.99913C23.9977 7.88505 23.9617 7.77389 23.8948 7.68151C23.8278 7.58912 23.7335 7.52022 23.6251 7.48465L20.7212 6.51721C20.0824 6.30461 19.502 5.94615 19.0258 5.47023C18.5496 4.99431 18.1908 4.41402 17.9779 3.77535L17.0104 0.870009C16.8454 0.375036 16.1465 0.375036 15.9815 0.870009L15.014 3.77385C14.8014 4.41264 14.443 4.99312 13.9671 5.4693C13.4911 5.94548 12.9108 6.30426 12.2722 6.51721L9.36684 7.48465Z" fill="white"/>
<path d="M0.0402935 3.62251C0.0665036 3.65934 0.103537 3.68709 0.146245 3.70189H0.147745L1.30718 4.08737C1.82616 4.25986 2.23263 4.66634 2.40512 5.18531L2.7921 6.34625C2.80691 6.38896 2.83466 6.42599 2.87148 6.4522C2.90831 6.47841 2.95239 6.4925 2.99759 6.4925C3.04279 6.4925 3.08687 6.47841 3.1237 6.4522C3.16053 6.42599 3.18827 6.38896 3.20308 6.34625L3.59006 5.18681C3.67514 4.93106 3.81867 4.69866 4.00926 4.50807C4.19985 4.31748 4.43225 4.17395 4.688 4.08887L5.84894 3.70189C5.89165 3.68709 5.92868 3.65934 5.95489 3.62251C5.9811 3.58568 5.99519 3.54161 5.99519 3.4964C5.99519 3.4512 5.9811 3.40712 5.95489 3.37029C5.92868 3.33347 5.89165 3.30572 5.84894 3.29091L4.688 2.90393C4.43225 2.81885 4.19985 2.67532 4.00926 2.48473C3.81867 2.29414 3.67514 2.06175 3.59006 1.80599L3.20308 0.645056C3.18827 0.602348 3.16053 0.565314 3.1237 0.539104C3.08687 0.512894 3.04279 0.49881 2.99759 0.49881C2.95239 0.49881 2.90831 0.512894 2.87148 0.539104C2.83466 0.565314 2.80691 0.602348 2.7921 0.645056L2.40512 1.80599C2.23263 2.32497 1.82616 2.73144 1.30718 2.90393L0.146245 3.29091C0.103537 3.30572 0.0665036 3.33347 0.0402935 3.37029C0.0140834 3.40712 0 3.4512 0 3.4964C0 3.54161 0.0140835 3.58568 0.0402935 3.62251Z" fill="#DDDDDD" fill-opacity="0.8"/>
</svg>
