<svg width="44" height="44" viewBox="0 0 44 44" fill="none" xmlns="http://www.w3.org/2000/svg">
<rect width="44" height="44" rx="22" fill="white"/>
<g clip-path="url(#clip0_189_4848)">
<g clip-path="url(#clip1_189_4848)">
<path d="M19.5 27.0013C19.0417 27.0013 18.6492 26.838 18.3225 26.5113C17.9958 26.1846 17.8328 25.7924 17.8333 25.3346V15.3346C17.8333 14.8763 17.9967 14.4838 18.3233 14.1571C18.65 13.8305 19.0422 13.6674 19.5 13.668H27C27.4583 13.668 27.8508 13.8313 28.1775 14.158C28.5042 14.4846 28.6672 14.8769 28.6667 15.3346V25.3346C28.6667 25.793 28.5033 26.1855 28.1767 26.5121C27.85 26.8388 27.4578 27.0019 27 27.0013H19.5ZM19.5 25.3346H27V15.3346H19.5V25.3346ZM16.1667 30.3346C15.7083 30.3346 15.3158 30.1713 14.9892 29.8446C14.6625 29.518 14.4995 29.1257 14.5 28.668V17.8346C14.5 17.5985 14.58 17.4005 14.74 17.2405C14.9 17.0805 15.0978 17.0008 15.3333 17.0013C15.5695 17.0013 15.7675 17.0813 15.9275 17.2413C16.0875 17.4013 16.1672 17.5991 16.1667 17.8346V28.668H24.5C24.7361 28.668 24.9342 28.748 25.0942 28.908C25.2542 29.068 25.3339 29.2657 25.3333 29.5013C25.3333 29.7374 25.2533 29.9355 25.0933 30.0955C24.9333 30.2555 24.7356 30.3352 24.5 30.3346H16.1667Z" fill="url(#paint0_linear_189_4848)"/>
</g>
</g>
<defs>
<linearGradient id="paint0_linear_189_4848" x1="14.5" y1="22.0013" x2="28.6667" y2="22.0013" gradientUnits="userSpaceOnUse">
<stop stop-color="#4884EE"/>
<stop offset="1" stop-color="#06BCFB"/>
</linearGradient>
<clipPath id="clip0_189_4848">
<rect width="20" height="20" fill="white" transform="translate(12 12)"/>
</clipPath>
<clipPath id="clip1_189_4848">
<rect width="20" height="20" fill="white" transform="translate(12 12)"/>
</clipPath>
</defs>
</svg>
