<svg width="17" height="16" viewBox="0 0 17 16" fill="none" xmlns="http://www.w3.org/2000/svg">
<path d="M8.25 0.967773C12.1339 0.967933 15.2832 4.11609 15.2832 8C15.283 11.8838 12.1338 15.033 8.25 15.0332C4.36609 15.0332 1.21794 11.8839 1.21777 8C1.21781 4.11601 4.36601 0.967811 8.25 0.967773ZM8.25 1.91699C4.89068 1.91703 2.16703 4.64069 2.16699 8C2.16716 11.3592 4.89076 14.083 8.25 14.083C11.6091 14.0828 14.3328 11.3591 14.333 8C14.333 4.64076 11.6092 1.91715 8.25 1.91699ZM8.25 6.43359C8.52597 6.43378 8.74997 6.65759 8.75 6.93359V10.7002H9.81738V11.7002H6.68359V10.7002H7.75V7.43359H6.68359V6.43359H8.25ZM8.25 4C8.69165 4.00011 9.04967 4.35816 9.0498 4.7998C9.0498 5.24156 8.69173 5.5995 8.25 5.59961C7.80817 5.59961 7.4502 5.24163 7.4502 4.7998C7.45033 4.35809 7.80825 4 8.25 4Z" fill="white"/>
</svg>
